/* XPM */
static char * left_active_xpm[] = {
"10 2 5 1",
" 	c None",
"$	c #ffffff s active_hilight_1",
"+	c #DFDFDF s active_hilight_2",
"@      c #131313 s active_mid_1",
"&      c #FF00FF s active_border_color",
"$$++&&@@@@",
"$$++&&@@@@"};
