/* XPM */
static char * bottom_right_active_xpm[] = {
"24 24 5 1",
" 	c None",
".	c #000000 s active_shadow_1",
"@	c #131313 s active_mid_1",
"#	c #525252 s active_shadow_2",
"&      c #FF00FF s active_border_color",
"              @@@@&&##..",
"              @@@@&&##..",
"              @@@@&&##..",
"              @@@@&&##..",
"              @@@@&&##..",
"              @@@@&&##..",
"              @@@@&&##..",
"              @@@@&&##..",
"              @@@@&&##..",
"              @@@@&&##..",
"              @@@@&&##..",
"              @@@@&&##..",
"              @@@@&&##..",
"              @@@@&&##..",
"@@@@@@@@@@@@@@@@@@&&##..",
"@@@@@@@@@@@@@@@@@@&&##..",
"@@@@@@@@@@@@@@@@@@&&##..",
"@@@@@@@@@@@@@@@@@@&&##..",
"&&&&&&&&&&&&&&&&&&&&##..",
"&&&&&&&&&&&&&&&&&&&&##..",
"######################..",
"######################..",
"........................",
"........................"};
