/* XPM */
static char * maximize_active_xpm[] = {
"32 48 7 1",
"       c None",
".      c #ff00ff s inactive_mid_2",
"&      c #000000 s inactive_shadow_1",
"+      c #ffffff s inactive_hilight_2",
"S      c #DFDFDF s inactive_hilight_1",
"@      c #131313 s inactive_mid_1",
"#      c #525252 s inactive_shadow_2",
"                                ",
"                                ",
"                                ",
"                                ",
"                                ",
"                                ",
"                                ",
"                                ",
"                                ",
"                                ",
"                                ",
"                                ",
"++++++++++++++++++++++++++++++&&",
"++++++++++++++++++++++++++++++&&",
"++SSSSSSSSSSSSSSSSSSSSSSSSSS##&&",
"++SSSSSSSSSSSSSSSSSSSSSSSSSS##&&",
"++SS@@..................@@@@##&&",
"++SS@@..................@@@@##&&",
"++SS@@..................@@@@##&&",
"++SS@@..................@@@@##&&",
"++SS@@..@@@@@@@@@@@@@@..@@@@##&&",
"++SS@@..@@@@@@@@@@@@@@..@@@@##&&",
"++SS@@..@@@@@@@@@@@@@@..@@@@##&&",
"++SS@@..@@@@@@@@@@@@@@..@@@@##&&",
"++SS@@..@@@@@@@@@@@@@@..@@@@##&&",
"++SS@@..@@@@@@@@@@@@@@..@@@@##&&",
"++SS@@..@@@@@@@@@@@@@@..@@@@##&&",
"++SS@@..@@@@@@@@@@@@@@..@@@@##&&",
"++SS@@..@@@@@@@@@@@@@@..@@@@##&&",
"++SS@@..@@@@@@@@@@@@@@..@@@@##&&",
"++SS@@..@@@@@@@@@@@@@@..@@@@##&&",
"++SS@@..@@@@@@@@@@@@@@..@@@@##&&",
"++SS@@..................@@@@##&&",
"++SS@@..................@@@@##&&",
"++SS@@@@@@@@@@@@@@@@@@@@@@@@##&&",
"++SS@@@@@@@@@@@@@@@@@@@@@@@@##&&",
"++############################&&",
"++############################&&",
"&&&&&&&&&&&&&&&&&&&&&&&&&&&&&&&&",
"&&&&&&&&&&&&&&&&&&&&&&&&&&&&&&&&",
"                                ",
"                                ",
"                                ",
"                                ",
"                                ",
"                                ",
"                                ",
"                                "};
