/* XPM */
static char * maximize_inactive_xpm[] = {
"16 24 8 1",
"       c None",
"^      c #8CB754 s inactive_color_1",
"&      c #000000 s inactive_shadow_1",
"+      c #ffffff s inactive_hilight_2",
"S      c #ffffff s inactive_hilight_1",
"@      c #131313 s inactive_mid_1",
".      c #131313 s inactive_mid_2",
"#      c #525252 s inactive_shadow_2",
"                ",
"                ",
"                ",
"                ",
"^^^^^^^^^^^^^^^^",
"^^^^^^^^^^^^^^^^",
"+++++++++++++++&",
"+SSSSSSSSSSSSS#&",
"+S@.........@@#&",
"+S@.........@@#&",
"+S@.@@@@@@@.@@#&",
"+S@.@@@@@@@.@@#&",
"+S@.@@@@@@@.@@#&",
"+S@.@@@@@@@.@@#&",
"+S@.@@@@@@@.@@#&",
"+S@.@@@@@@@.@@#&",
"+S@.........@@#&",
"+S@@@@@@@@@@@@#&",
"+##############&",
"&&&&&&&&&&&&&&&&",
"^^^^^^^^^^^^^^^^",
"^^^^^^^^^^^^^^^^",
"                ",
"                "};


