/* XPM */
static char * menu_active_xpm[] = {
"16 17 2 1",
"   c None",
"@  c #131313 s active_color_2",
"                ",
"@@@@@@@@@@@@@@@@",
"@@@@@@@@@@@@@@@@",
"@@@@@@@@@@@@@@@@",
"@@@@@@@@@@@@@@@@",
"@@@@@@@@@@@@@@@@",
"@@@@@@@@@@@@@@@@",
"@@@@@@@@@@@@@@@@",
"@@@@@@@@@@@@@@@@",
"@@@@@@@@@@@@@@@@",
"@@@@@@@@@@@@@@@@",
"@@@@@@@@@@@@@@@@",
"@@@@@@@@@@@@@@@@",
"@@@@@@@@@@@@@@@@",
"@@@@@@@@@@@@@@@@",
"@@@@@@@@@@@@@@@@",
"@@@@@@@@@@@@@@@@",
"@@@@@@@@@@@@@@@@",
"@@@@@@@@@@@@@@@@",
"@@@@@@@@@@@@@@@@",
"@@@@@@@@@@@@@@@@",
"@@@@@@@@@@@@@@@@",
"@@@@@@@@@@@@@@@@"};
