/* XPM */
static char * right_inactive_xpm[] = {
"4 1 4 1",
".	c #000000 s inactive_shadow_1",
"#	c #525252 s inactive_shadow_2",
"@	c #131313 s inactive_mid_1",
"&      c #FF00FF s inactive_border_color",
"@&#."};
