/* XPM */
static char * title_middle_active_xpm[] = {
"5 24 6 1",
" 	c None",
"+	c #ffffff s active_hilight_2",
"@	c #131313 s active_mid_1",
"#	c #525252 s active_hilight_1",
"&      c #FF00FF s active_border_color",
"$	c #8CB754 s active_color_1",
"#####",
"+++++",
"&&&&&",
"@@@@@",
"$$$$$",
"$$$$$",
"$$$$$",
"$$$$$",
"$$$$$",
"$$$$$",
"$$$$$",
"$$$$$",
"$$$$$",
"$$$$$",
"$$$$$",
"$$$$$",
"$$$$$",
"$$$$$",
"$$$$$",
"$$$$$",
"$$$$$",
"$$$$$",
"@@@@@",
"@@@@@"};
